# xmcd CD database file generated by GCD 2.7
# 
# Track frame offsets:
#       150
#       17390
#       31929
#       46131
#       62796
#       76910
#       92212
#       110489
#       126516
#       138531
#       148845
#       163260
#       176137
#       192726
#       206291
# 
# Disc length: 2958 seconds
# 
# Revision: 3
# Processed by: cddbd v1.4b41PL1 Copyright (c) Steve Scherf et al.
# Submitted via: GCD 2.7
# 
DISCID=da0b8c0f
DTITLE=Billie Holiday - Lady Sings the Blues
DYEAR=1900
DGENRE=
TTITLE0=Lady sings the blues
TTITLE1=Travelin'light
TTITLE2=I must have that man
TTITLE3=SOme other spring
TTITLE4=Strange fruit
TTITLE5=No good man
TTITLE6=God bless the child
TTITLE7=Good morning heartache
TTITLE8=Love me or leave me
TTITLE9=Too marvelous for words
TTITLE10=Willow weep for me
TTITLE11=I thought about you
TTITLE12=P.S. I love you
TTITLE13=Softly
TTITLE14=Stormy blues
EXTD=
EXTT0=
EXTT1=
EXTT2=
EXTT3=
EXTT4=
EXTT5=
EXTT6=
EXTT7=
EXTT8=
EXTT9=
EXTT10=
EXTT11=
EXTT12=
EXTT13=
EXTT14=
PLAYORDER=
